# Blender v2.76 (sub 0) OBJ File: ''
# www.blender.org
mtllib untitled.mtl
o box
v -0.230553 0.817616 0.451839
v -0.230553 0.002567 0.451839
v -0.173499 0.059620 0.451839
v -0.173500 0.760563 0.451839
v 0.584497 0.002567 0.451839
v 0.584496 0.817616 0.451839
v 0.527443 0.760563 0.451839
v 0.527443 0.059620 0.451839
v 0.584497 0.002567 -0.363210
v 0.584497 0.817616 -0.363210
v 0.584497 0.760563 -0.306157
v 0.584497 0.059620 -0.306157
v 0.584497 0.059620 0.394786
v 0.584496 0.760563 0.394786
v -0.230553 0.002567 -0.363210
v -0.230553 0.817616 -0.363210
v -0.173499 0.760563 -0.363210
v -0.173499 0.059620 -0.363210
v 0.527443 0.059620 -0.363210
v 0.527443 0.760563 -0.363210
v -0.230553 0.059620 -0.306157
v -0.230553 0.760563 -0.306157
v -0.230553 0.760563 0.394786
v -0.230553 0.059620 0.394786
v -0.173499 0.817616 -0.306157
v 0.527443 0.817616 -0.306157
v -0.173499 0.817616 0.394786
v 0.527443 0.817616 0.394786
v -0.173499 0.002567 -0.306157
v -0.173499 0.002567 0.394786
v 0.527443 0.002567 -0.306157
v 0.527443 0.002567 0.394786
v -0.194732 0.059620 -0.306157
v -0.194732 0.760563 -0.306157
v -0.194732 0.760563 0.394786
v -0.194732 0.059620 0.394786
v -0.173499 0.059620 0.416019
v -0.173500 0.760563 0.416019
v 0.527443 0.760563 0.416019
v 0.527443 0.059620 0.416019
v 0.548676 0.760563 -0.306157
v 0.548676 0.059620 -0.306157
v 0.548676 0.059620 0.394786
v 0.548676 0.760563 0.394786
v -0.173499 0.781795 -0.306157
v 0.527443 0.781795 -0.306157
v -0.173499 0.781795 0.394786
v 0.527443 0.781795 0.394786
v -0.173499 0.760563 -0.327390
v -0.173499 0.059620 -0.327390
v 0.527443 0.059620 -0.327390
v 0.527443 0.760563 -0.327390
v -0.173499 0.038387 -0.306157
v -0.173499 0.038387 0.394786
v 0.527443 0.038387 -0.306157
v 0.527443 0.038387 0.394786
vt 0.823861 0.970135
vt 0.823861 0.018458
vt 0.770054 0.085076
vt 0.770055 0.903518
vt 0.055198 0.018458
vt 0.055198 0.970135
vt 0.109005 0.903518
vt 0.109005 0.085076
vt 0.683939 0.983995
vt 0.683939 0.032317
vt 0.630132 0.098934
vt 0.630132 0.917377
vt 0.323849 0.014994
vt 0.323849 0.966671
vt 0.377655 0.900053
vt 0.377655 0.081611
vt 0.948843 0.045965
vt 0.948843 0.964915
vt 0.896887 0.900588
vt 0.896887 0.110291
vt 0.206614 0.964915
vt 0.206614 0.045965
vt 0.258570 0.110291
vt 0.258570 0.900588
vt 0.674596 0.042500
vt 0.674596 0.961451
vt 0.622640 0.897124
vt 0.622640 0.106826
vt 0.338141 0.954521
vt 0.338141 0.035571
vt 0.390097 0.099897
vt 0.390097 0.890194
vt 0.070712 0.031402
vt 0.070712 0.960941
vt 0.123267 0.895874
vt 0.123267 0.096470
vt 0.821494 0.960942
vt 0.821494 0.031402
vt 0.768939 0.096470
vt 0.768939 0.895874
vt 0.950222 0.950548
vt 0.950222 0.021007
vt 0.897667 0.086076
vt 0.897667 0.885480
vt 0.199440 0.021008
vt 0.199440 0.950548
vt 0.251995 0.885480
vt 0.251995 0.086076
vt 0.825564 0.975079
vt 0.825564 0.022083
vt 0.771683 0.088793
vt 0.771683 0.908369
vt 0.055838 0.022083
vt 0.055838 0.975079
vt 0.109718 0.908369
vt 0.109718 0.088793
vt 0.819967 0.978543
vt 0.819967 0.025549
vt 0.766087 0.092258
vt 0.766087 0.911834
vt 0.352472 0.025548
vt 0.352472 0.978543
vt 0.406353 0.911834
vt 0.406353 0.092258
vt 0.540590 0.028263
vt 0.540590 0.982989
vt 0.486611 0.916158
vt 0.486611 0.095095
vt 0.189232 0.969130
vt 0.189232 0.014405
vt 0.243211 0.081236
vt 0.243211 0.902299
vt 0.354341 0.969130
vt 0.354340 0.014404
vt 0.408319 0.081236
vt 0.408319 0.902299
vt 0.960357 0.014405
vt 0.960357 0.969129
vt 0.906377 0.902299
vt 0.906377 0.081235
vt 0.066415 0.035445
vt 0.066415 0.968275
vt 0.119156 0.902977
vt 0.119156 0.100743
vt 0.965374 0.961346
vt 0.965374 0.028515
vt 0.912633 0.093814
vt 0.912633 0.896047
vt 0.819855 0.968275
vt 0.819855 0.035445
vt 0.767114 0.100743
vt 0.767114 0.902977
vt 0.211934 0.028515
vt 0.211934 0.961346
vt 0.264675 0.896047
vt 0.264675 0.093814
vt 0.257228 0.885498
vt 0.257229 0.145603
vt 0.287769 0.145603
vt 0.287769 0.885498
vt 0.169156 0.201523
vt 0.169156 0.901628
vt 0.198054 0.901628
vt 0.198054 0.201523
vt 0.265144 0.170132
vt 0.265144 0.893081
vt 0.294985 0.893081
vt 0.294985 0.170132
vt 0.313754 0.867614
vt 0.313754 0.306610
vt 0.336910 0.306610
vt 0.336910 0.867614
vt 0.177194 0.697570
vt 0.177194 0.129808
vt 0.200629 0.129808
vt 0.200629 0.697570
vt 0.100488 0.081709
vt 0.100488 0.795189
vt 0.129937 0.795189
vt 0.129938 0.081709
vt 0.024724 0.160111
vt 0.024724 0.883060
vt 0.054564 0.883060
vt 0.054564 0.160111
vt 0.145603 0.836058
vt 0.145603 0.275054
vt 0.168759 0.275054
vt 0.168759 0.836058
vt 0.999032 0.859163
vt 0.999033 0.001081
vt 0.305966 0.001081
vt 0.305966 0.859163
vt 0.008829 0.115756
vt 0.722520 0.115756
vt 0.722520 0.999373
vt 0.008829 0.999373
vt 0.685757 0.116272
vt 0.685757 0.866323
vt 0.654797 0.866323
vt 0.654797 0.116272
vt 0.826680 0.901628
vt 0.826680 0.201523
vt 0.797782 0.201523
vt 0.797782 0.901628
vt 0.944122 0.893081
vt 0.944122 0.170132
vt 0.914281 0.170132
vt 0.914281 0.893081
vt 0.840636 0.306610
vt 0.840636 0.867614
vt 0.817480 0.867614
vt 0.817480 0.306610
vt 0.721933 0.886551
vt 0.006987 0.886551
vt 0.006987 0.001379
vt 0.721933 0.001379
vt 0.000000 0.000000
vt 1.000000 0.000000
vt 1.000000 1.000000
vt 0.000000 1.000000
vt 0.338717 0.222898
vt 0.338717 0.790661
vt 0.315282 0.790661
vt 0.315282 0.222898
vt 0.427142 0.873770
vt 0.427142 0.160290
vt 0.397693 0.160290
vt 0.397693 0.873770
vt 1.000440 0.860516
vt 0.306375 0.860516
vt 0.306375 0.001197
vt 1.000440 0.001196
vt 0.710424 0.129808
vt 0.710424 0.697570
vt 0.686989 0.697570
vt 0.686989 0.129808
vt 0.770571 0.795189
vt 0.770572 0.081709
vt 0.741122 0.081709
vt 0.741122 0.795189
vt 0.703701 0.883060
vt 0.703701 0.160111
vt 0.673861 0.160111
vt 0.673861 0.883060
vt 0.672485 0.275054
vt 0.672485 0.836058
vt 0.649329 0.836058
vt 0.649329 0.275054
vt 0.007905 0.115087
vt 0.007905 0.998603
vt 0.721514 0.998603
vt 0.721514 0.115087
vt 0.156987 0.004717
vt 0.156987 0.876165
vt 0.860848 0.876165
vt 0.860848 0.004717
vn 0.000000 -0.000000 1.000000
vn 1.000000 -0.000000 0.000000
vn 0.000000 0.000000 -1.000000
vn -1.000000 0.000000 0.000000
vn 0.000000 1.000000 0.000000
vn 0.000000 -1.000000 0.000000
usemtl WoodPlanks.jpg
s off
f 1/1/1 2/2/1 3/3/1 4/4/1
f 5/5/1 6/6/1 7/7/1 8/8/1
f 6/9/1 1/10/1 4/11/1 7/12/1
f 2/13/1 5/14/1 8/15/1 3/16/1
f 9/17/2 10/18/2 11/19/2 12/20/2
f 6/21/2 5/22/2 13/23/2 14/24/2
f 10/25/2 6/26/2 14/27/2 11/28/2
f 5/29/2 9/30/2 12/31/2 13/32/2
f 15/33/3 16/34/3 17/35/3 18/36/3
f 10/37/3 9/38/3 19/39/3 20/40/3
f 16/41/3 10/42/3 20/43/3 17/44/3
f 9/45/3 15/46/3 18/47/3 19/48/3
f 16/49/4 15/50/4 21/51/4 22/52/4
f 2/53/4 1/54/4 23/55/4 24/56/4
f 1/57/4 16/58/4 22/59/4 23/60/4
f 15/61/4 2/62/4 24/63/4 21/64/4
f 10/65/5 16/66/5 25/67/5 26/68/5
f 16/69/5 1/70/5 27/71/5 25/72/5
f 1/73/5 6/74/5 28/75/5 27/76/5
f 6/77/5 10/78/5 26/79/5 28/80/5
f 2/81/6 15/82/6 29/83/6 30/84/6
f 15/85/6 9/86/6 31/87/6 29/88/6
f 9/89/6 5/90/6 32/91/6 31/92/6
f 5/93/6 2/94/6 30/95/6 32/96/6
f 22/97/1 21/98/1 33/99/1 34/100/1
f 24/101/3 23/102/3 35/103/3 36/104/3
f 23/105/6 22/106/6 34/107/6 35/108/6
f 21/109/5 24/110/5 36/111/5 33/112/5
f 4/113/2 3/114/2 37/115/2 38/116/2
f 8/117/4 7/118/4 39/119/4 40/120/4
f 7/121/6 4/122/6 38/123/6 39/124/6
f 3/125/5 8/126/5 40/127/5 37/128/5
f 34/129/4 33/130/4 36/131/4 35/132/4
f 37/133/1 40/134/1 39/135/1 38/136/1
f 12/137/1 11/138/1 41/139/1 42/140/1
f 14/141/3 13/142/3 43/143/3 44/144/3
f 11/145/6 14/146/6 44/147/6 41/148/6
f 13/149/5 12/150/5 42/151/5 43/152/5
f 41/153/2 44/154/2 43/155/2 42/156/2
f 26/157/1 25/158/1 45/159/1 46/160/1
f 25/161/2 27/162/2 47/163/2 45/164/2
f 27/157/3 28/158/3 48/159/3 47/160/3
f 28/165/4 26/166/4 46/167/4 48/168/4
f 46/169/5 45/170/5 47/171/5
f 48/172/5 46/169/5 47/171/5
f 18/173/2 17/174/2 49/175/2 50/176/2
f 20/177/4 19/178/4 51/179/4 52/180/4
f 17/181/6 20/182/6 52/183/6 49/184/6
f 19/185/5 18/186/5 50/187/5 51/188/5
f 50/189/3 49/190/3 52/191/3 51/192/3
f 30/157/2 29/158/2 53/159/2 54/160/2
f 29/157/1 31/158/1 55/159/1 53/160/1
f 31/157/4 32/158/4 56/159/4 55/160/4
f 32/157/3 30/158/3 54/159/3 56/160/3
f 54/193/6 53/194/6 55/195/6 56/196/6
